# xmcd
#
# Track frame offsets:
#	150
#	12280
#	26692
#	40400
#	55852
#	67592
#	79887
#	92192
#	103690
#	116852
#	128015
#	140800
#	152850
#	167377
#
# Disc length: 2402 seconds
#
# Revision: 0
# Processed by: cddbd v1.4PL0 Copyright (c) Steve Scherf et al.
# Submitted via: audiograbber 1.80.04
#
DISCID=b709600e
DTITLE=Little Milton - The Great Blues Legend Disc2
DYEAR=1900
DGENRE=Blues
TTITLE0=We're Gonna Make It
TTITLE1=Blues In The Night
TTITLE2=Who's Cheating Who?
TTITLE3=Blind Man
TTITLE4=Can't Hold Back The Tears
TTITLE5=Believe In Me
TTITLE6=Grits Ain't Groceries (All Around The World)
TTITLE7=I Play Dirty
TTITLE8=Stand By Me
TTITLE9=Just A Little Bit
TTITLE10=More And More
TTITLE11=Life Is Like That
TTITLE12=If Walls Could Talk
TTITLE13=Baby I Love You
EXTD=
EXTT0=
EXTT1=
EXTT2=
EXTT3=
EXTT4=
EXTT5=
EXTT6=
EXTT7=
EXTT8=
EXTT9=
EXTT10=
EXTT11=
EXTT12=
EXTT13=
PLAYORDER=
